<?xml version="1.0" encoding="UTF-8"?>
<svg id="Layer_1" data-name="Layer 1" xmlns="http://www.w3.org/2000/svg" viewBox="0 0 85.04 85.04">
  <defs>
    <style>
      .cls-1 {
        fill: #f7efe5;
      }
    </style>
  </defs>
  <path class="cls-1" d="M33.34,77.1c.33-10,.25-20.01.71-30.01.04-.94-.87-1.87-1.81-1.81-3.77.22-7.55.19-11.32-.08.6.6,1.21,1.21,1.81,1.81,0-4.69-.28-9.37-.83-14.03-.6.6-1.21,1.21-1.81,1.81,2.02-.07,4.04-.14,6.05-.2l3.03-.1c1-.03,2.18.09,3.12-.29,1.99-.81,1.68-3.64,1.73-5.4.06-2.04.02-4.08.16-6.11.2-2.98.85-6.29,2.91-8.59,2.22-2.49,5.93-3.3,9.07-3.96,3.68-.77,7.73-.95,11.21.69l-.83-1.08c.84,2.64.71,5.34.44,8.07-.06.61-.3,1.38-.21,1.98-.13.59.06.5.59-.27-.12.03-.25.06-.38.08-.35.06-.71.08-1.07.1-1.45.07-2.9.01-4.34.24-2.41.38-4.73,1.8-5.47,4.24-.41,1.37-.32,2.88-.34,4.29-.02,1.54-.03,3.08-.05,4.62-.01,1,.84,1.79,1.81,1.81,3.75.09,7.5.18,11.25.27-.6-.6-1.21-1.21-1.81-1.81-.12,3.45-.71,6.85-1.77,10.14-.08.25-.53,2.01-.72,2.03.39-.26.46-.36.21-.3-.23.03-.46.05-.69.07-.46.04-.92.08-1.38.11-1.85.11-3.7.08-5.55-.06-.96-.07-1.84.89-1.81,1.81.15,4.97.24,9.93.27,14.9.01,2.45,0,4.91,0,7.36,0,1.2-.02,2.39-.04,3.59,0,.66-.02,1.32-.03,1.98,0,.48.06,1.06-.08,1.44l.47-.8c.52-.16.61-.23.27-.21-.18,0-.36,0-.54,0-.24,0-.48,0-.72,0-.66,0-1.32-.01-1.98-.02-1.26-.01-2.51-.03-3.77-.04-2.51-.03-5.03-.05-7.54-.08-2.33-.02-2.33,3.6,0,3.62,3.17.03,6.35.06,9.52.1,1.56.02,3.11.03,4.67.05,1.61.02,3.05-.52,3.26-2.32.18-1.51.09-3.08.11-4.6.02-1.62.03-3.23.04-4.85.01-3.11,0-6.23-.04-9.34-.04-3.59-.12-7.18-.23-10.77-.6.6-1.21,1.21-1.81,1.81,2.14.17,4.28.18,6.41,0,1.02-.08,2.29-.06,3.18-.62s1.26-1.64,1.61-2.62c1.42-3.96,2.18-8.16,2.32-12.36.03-1-.86-1.79-1.81-1.81-3.75-.09-7.5-.18-11.25-.27.6.6,1.21,1.21,1.81,1.81.02-1.48.03-2.96.05-4.44.01-1.12-.2-2.57.25-3.63.84-1.98,4.09-1.64,5.76-1.68,1.3-.04,3.1,0,4.1-.98s.92-2.72,1.06-4.05c.28-2.71.43-5.43-.14-8.11-.14-.66-.28-1.48-.7-2.02-.47-.61-1.36-.87-2.06-1.13-1.21-.46-2.47-.73-3.76-.9-2.7-.36-5.42-.13-8.08.38-5.04.96-10.34,2.63-12.98,7.39-1.4,2.53-2,5.39-2.23,8.25-.13,1.63-.14,3.26-.16,4.89-.01.82-.02,1.63-.06,2.45-.02.48.1,1.67-.15,2.02l.65-.65c.37-.08.33-.1-.11-.05l-.71.02c-.47.02-.95.03-1.42.05-.95.03-1.9.06-2.85.1-1.9.06-3.8.13-5.7.19-.89.03-1.93.81-1.81,1.81.55,4.66.83,9.34.83,14.03,0,1.03.83,1.74,1.81,1.81,3.77.27,7.55.3,11.32.08-.6-.6-1.21-1.21-1.81-1.81-.46,10-.38,20.01-.71,30.01-.08,2.33,3.55,2.33,3.62,0h0Z"/>
</svg>