<?xml version="1.0" encoding="UTF-8"?>
<svg id="Layer_1" data-name="Layer 1" xmlns="http://www.w3.org/2000/svg" viewBox="0 0 85.04 85.04">
  <defs>
    <style>
      .cls-1 {
        fill: #f7efe5;
      }
    </style>
  </defs>
  <path class="cls-1" d="M12.15,74.97c-.48-11.73-.61-23.48-.38-35.23.06-3.35.16-6.71.28-10.06-.56.56-1.13,1.13-1.69,1.69,4.46-.07,8.92-.06,13.38.05l-1.69-1.69c-.5,11.66-.66,23.34-.47,35.01.05,3.29.14,6.59.25,9.88.56-.56,1.13-1.13,1.69-1.69-4.34.26-8.7.57-13.05.34-2.17-.11-2.17,3.27,0,3.38,4.35.22,8.71-.08,13.05-.34.89-.05,1.72-.73,1.69-1.69-.39-11.67-.43-23.35-.12-35.02.09-3.29.2-6.59.35-9.88.04-.93-.81-1.67-1.69-1.69-4.46-.11-8.92-.13-13.38-.05-.94.02-1.66.76-1.69,1.69-.42,11.74-.5,23.49-.22,35.23.08,3.35.19,6.71.32,10.06.09,2.17,3.47,2.18,3.38,0h0Z"/>
  <path class="cls-1" d="M16.52,7.98c-4.06.03-7.76,2.87-8.96,6.74-1.2,3.86.62,8.06,3.8,10.37,1.79,1.3,4.13,1.95,6.33,1.54,2.02-.37,3.95-1.62,5.4-3.04,1.44-1.42,2.57-3.27,2.88-5.29s-.07-4.18-1.04-6.02c-.52-.98-1.25-2.17-2.18-2.8-.56-.39-1.23-.65-1.85-.94-1.3-.6-2.97-.52-4.38-.57-2.17-.08-2.17,3.3,0,3.38.42.01.84.03,1.26.06.3.02.59.04.88.06.15.01.88.12.49.04.09.02.23.07.32.07,0,0-.43-.21-.2-.08.21.11.44.21.66.31.24.11.49.22.72.35.11.06.21.11.31.18-.46-.28.02.1.13.24,1.79,2.24,2.19,5.14.53,7.55-.81,1.18-1.98,2.07-3.25,2.72-1.35.69-2.86.68-4.2,0-2.33-1.17-3.95-3.82-3.56-6.41.41-2.79,3.12-5.06,5.91-5.08,2.17-.01,2.18-3.39,0-3.38h0Z"/>
  <path class="cls-1" d="M31.16,30.84c-.03,11.39.33,22.78.59,34.17.07,3.17.14,6.34.19,9.52.01.89.76,1.71,1.69,1.69,3.9-.1,7.8-.25,11.68-.66.9-.09,1.71-.7,1.69-1.69-.06-3.11-.12-6.23-.17-9.34s-.23-6.08-.06-9.11c.15-2.63.79-5.31,2.07-7.63.99-1.79,2.5-3.63,4.52-4.27s3.82.18,5.18,1.66c1.61,1.75,2.18,4.19,2.37,6.5.24,2.96.13,5.96.15,8.92s.03,6.09.05,9.14c0,.83,0,1.66.01,2.49,0,.78-.09,1.66.13,2.43.54,1.88,2.52,1.92,4.13,2.1,3.43.38,6.89.39,10.33.07.97-.09,1.6-.7,1.69-1.69.49-5.46.53-10.95.36-16.43-.17-5.3-.35-10.67-.91-15.94-.24-2.3-.67-4.59-1.8-6.63s-3.06-3.69-5.15-4.84c-3.89-2.14-8.45-3.12-12.85-2.46-2.31.35-4.54,1.23-6.41,2.65-1.98,1.5-3.47,3.66-5.75,4.75.85.49,1.69.97,2.54,1.46-.03-1.82-.06-3.65-.09-5.47-.02-.91-.05-1.85-.74-2.53s-1.66-.73-2.58-.71c-3.72.06-7.45.12-11.17.18-2.17.03-2.18,3.41,0,3.38,2.06-.03,4.11-.06,6.17-.1,1-.02,2-.03,3-.05.5,0,1-.02,1.5-.02.22,0,.44,0,.67-.01.15,0,.3,0,.45,0,.19,0,.16,0-.09,0l-.61-.61c.07.11.02.74.02.98,0,.55.02,1.11.03,1.66.02,1.11.04,2.21.06,3.32.02,1.35,1.4,2.01,2.54,1.46,1.92-.92,3.35-2.52,4.87-3.96,1.37-1.3,2.91-2.24,4.74-2.74,3.61-1,7.66-.35,11,1.25,1.78.85,3.56,1.96,4.64,3.66,1.07,1.69,1.45,3.71,1.64,5.67.48,4.92.68,9.9.85,14.84.21,5.76.19,11.52-.33,17.26.56-.56,1.13-1.13,1.69-1.69-2.07.19-4.15.27-6.23.21-.99-.03-1.97-.08-2.95-.17-.55-.05-1.09-.1-1.63-.17-.33-.04-.7-.02-.95-.21.2.2.4.4.61.61.02.03-.07.02-.04-.16.05-.31,0-.68,0-1,0-.72,0-1.44-.01-2.16,0-1.44-.01-2.88-.02-4.32-.01-2.77-.03-5.54-.04-8.3-.03-5.04.23-10.5-3.17-14.62-1.38-1.68-3.35-2.88-5.52-3.17-2.32-.3-4.52.52-6.33,1.93-3.85,3.01-5.57,8.12-5.97,12.84-.26,3.12-.06,6.3,0,9.43s.12,6.45.18,9.67c.56-.56,1.13-1.13,1.69-1.69-3.88.41-7.78.56-11.68.66.56.56,1.13,1.13,1.69,1.69-.17-11.39-.57-22.78-.72-34.17-.04-3.17-.06-6.34-.05-9.52,0-2.17-3.37-2.18-3.38,0h0Z"/>
</svg>