<svg xmlns="http://www.w3.org/2000/svg" width="27" height="25" viewBox="0 0 27 25">
    <g fill="none" fill-rule="evenodd" transform="translate(1 1)">
        <ellipse cx="12.5" cy="6" fill="#FFF" stroke="#000" stroke-width="1.5" rx="7.5" ry="6"/>
        <g transform="translate(0 6)">
            <path fill="#FFF" stroke="#000" stroke-width="1.68" d="M.994 0h22.372a.84.84 0 0 1 .828.98l-2.515 14.84a.84.84 0 0 1-.829.7H3.51a.84.84 0 0 1-.829-.7L.166.98A.84.84 0 0 1 .994 0z"/>
            <rect width="16.52" height="1.68" x="3.92" y="3.64" fill="#000" rx=".84"/>
            <rect width="13.72" height="1.68" x="5.32" y="7.28" fill="#000" rx=".84"/>
            <rect width="10.92" height="1.68" x="6.72" y="10.92" fill="#000" rx=".84"/>
        </g>
    </g>
</svg>
