<svg xmlns="http://www.w3.org/2000/svg" width="28" height="25" viewBox="0 0 28 25">
    <path fill="#000" fill-rule="evenodd" d="M20.832.24c-2.874 0-5.172 2.184-6.6 3.63C12.774 2.436 10.434.24 7.566.24 3.366.24.45 3.198.45 7.44c0 9.21 12.066 16.8 12.6 17.106a1.8 1.8 0 0 0 1.902 0c.51-.318 12.522-7.944 12.522-17.1C27.432 3 24.906.24 20.832.24zm-6.9 22.8S2.208 15.78 2.208 7.44c0-3.222 2.094-5.4 5.316-5.4s6.084 4.2 6.684 4.2c.6 0 3.378-4.2 6.6-4.2 3.222 0 4.8 2.178 4.8 5.4.024 8.262-11.676 15.6-11.676 15.6z"/>
</svg>
