<?xml version="1.0" encoding="UTF-8"?>
<svg id="Layer_1" data-name="Layer 1" xmlns="http://www.w3.org/2000/svg" viewBox="0 0 85.04 85.04">
  <defs>
    <style>
      .cls-1 {
        fill: #f7efe5;
      }
    </style>
  </defs>
  <path class="cls-1" d="M72.88,37.78c.14-3.02-.11-6.04.03-9.06.05-.97-.99-1.7-1.89-1.44-2.19.63-4.47-.17-6.41-1.2-1.81-.97-3.42-2.22-4.82-3.72-2.7-2.9-4.53-6.7-4.93-10.66-.09-.85-.62-1.43-1.49-1.49-2.94-.21-5.87-.42-8.81-.63-.81-.06-1.48.73-1.49,1.49-.18,14.05-.35,28.11-.54,42.16-.04,2.93-.06,6.1-1.44,8.77-1.09,2.11-2.96,3.88-5.2,4.71-4.82,1.79-10.2-.89-11.52-5.89-.75-2.86-.99-6.77,1.62-8.75,1.33-1.01,2.94-1.85,4.49-2.44,1.64-.62,3.3-.94,5.05-.74.8.09,1.49-.76,1.49-1.49,0-3.47,0-6.95,0-10.42,0-.84-.68-1.45-1.49-1.49-7.98-.42-15.96,3.77-20.22,10.52-4.28,6.78-4.17,15.89-.12,22.75,4.17,7.06,12.59,11.1,20.71,10.19s14.96-6.5,17.77-14.06c1.71-4.59,1.44-9.62,1.41-14.44-.03-5.2-.07-10.4-.1-15.6,0-1.28-.02-2.55-.03-3.83-.85.35-1.7.7-2.54,1.05,5.39,4.39,12.03,6.94,18.99,7.2,1.92.07,1.91-2.91,0-2.98-6.11-.23-12.13-2.46-16.88-6.33-.95-.78-2.55-.33-2.54,1.05.03,4.9.07,9.81.1,14.71.02,2.45.03,4.9.05,7.35.01,2.25.03,4.53-.27,6.77-.94,7.06-6.02,13.3-12.86,15.43-6.92,2.16-14.88-.16-19.57-5.67-4.48-5.26-5.59-13.26-2.88-19.59,3.14-7.33,11.1-11.96,18.99-11.55-.5-.5-.99-.99-1.49-1.49,0,3.47,0,6.95,0,10.42.5-.5.99-.99,1.49-1.49-3.55-.41-7.03,1.1-10.01,2.9-1.47.9-2.89,2.01-3.66,3.6s-.93,3.22-.91,4.89c.05,3.38.9,6.79,3.27,9.31,2.05,2.18,4.97,3.47,7.94,3.65,3.01.19,5.95-.94,8.27-2.81,2.47-1.99,4.01-4.84,4.6-7.93.68-3.56.5-7.26.55-10.86l.15-11.59c.11-8.67.22-17.33.33-26-.5.5-.99.99-1.49,1.49,2.94.21,5.87.42,8.81.63-.5-.5-.99-.99-1.49-1.49.49,4.85,2.59,9.39,5.96,12.93,3.37,3.54,8.92,7,13.98,5.53-.63-.48-1.26-.96-1.89-1.44-.14,3.02.11,6.04-.03,9.06-.09,1.92,2.89,1.91,2.98,0h0Z"/>
</svg>