<svg xmlns="http://www.w3.org/2000/svg" width="25" height="24" viewBox="0 0 25 24">
    <g fill="#000" fill-rule="evenodd">
        <path d="M12.432 14.64c3.306 0 6-3.228 6-7.2s-2.694-7.2-6-7.2-6 3.228-6 7.2 2.7 7.2 6 7.2zm0-12.6c2.322 0 4.2 2.4 4.2 5.4 0 3-1.878 5.4-4.2 5.4s-4.2-2.4-4.2-5.4c0-3 1.878-5.4 4.2-5.4z"/>
        <path d="M17.922 14.04a.904.904 0 0 0-.18 1.8 5.844 5.844 0 0 1 5.148 5.4H1.974a5.892 5.892 0 0 1 5.148-5.4.904.904 0 1 0-.18-1.8c-.066 0-6.81.768-6.81 8.094a.9.9 0 0 0 .9.9h22.8a.9.9 0 0 0 .9-.9c0-7.326-6.744-8.094-6.81-8.094z"/>
    </g>
</svg>
